<svg xmlns="http://www.w3.org/2000/svg" viewBox="0 0 36 35"><title>Puppet Logo</title><path d="M17.5,17.5v-8H11.35L8,6.15V0H0V8H6.15l3.3,3.3h0v4.26h0l-3.3,3.3H0v8H8V20.8l3.3-3.3ZM2.68,2.68H5.36V5.36H2.68ZM5.36,24.27H2.68V21.59H5.36Z" fill="#ffae1a"/><path d="M26.41,35H22.86V17.5h3.55v1.06a4.4,4.4,0,0,1,3.2-1.34c3.72,0,5.83,3.09,5.83,6.69s-2.12,6.66-5.83,6.66a4.4,4.4,0,0,1-3.2-1.34Zm0-9a2.69,2.69,0,0,0,2.4,1.49c1.92,0,3.06-1.54,3.06-3.57s-1.14-3.6-3.06-3.6a2.71,2.71,0,0,0-2.4,1.49Z" fill="#fff"/></svg>
